<svg xmlns="http://www.w3.org/2000/svg" viewBox="0 0 100 100">
  <defs>
    <linearGradient id="bg" x1="0%" y1="0%" x2="100%" y2="100%">
      <stop offset="0%" stop-color="#6366F1"/>
      <stop offset="100%" stop-color="#3B82F6"/>
    </linearGradient>
  </defs>
  <rect width="100" height="100" rx="22" fill="url(#bg)"/>
  <g transform="translate(50,47)" fill="white" fill-opacity="0.15" stroke="white" stroke-width="3.2" stroke-linecap="round" stroke-linejoin="round">
    <!-- Left hemisphere -->
    <path d="M-1,-23 C-8,-23 -15,-21 -20,-16 C-25,-11 -27,-4 -26,3 C-25,10 -21,16 -15,20 C-10,23 -5,23 -1,20 Z"/>
    <!-- Right hemisphere -->
    <path d="M1,-23 C8,-23 15,-21 20,-16 C25,-11 27,-4 26,3 C25,10 21,16 15,20 C10,23 5,23 1,20 Z"/>
    <!-- Folds -->
    <path d="M-24,0 C-17,-4 -8,-4 -1,0" fill="none"/>
    <path d="M24,0 C17,-4 8,-4 1,0" fill="none"/>
    <!-- Stem -->
    <line x1="0" y1="20" x2="0" y2="32" fill="none" stroke-width="3.5"/>
  </g>
</svg>
